<svg width="1600" height="500" viewBox="0 0 1600 500" fill="none" xmlns="http://www.w3.org/2000/svg">
<rect width="1600" height="500" fill="#E4E1E1"/>
<path d="M841.625 306H760.375C755.206 306 751 301.807 751 296.654V246.808C751 241.655 755.206 237.462 760.375 237.462H774.066L779.444 226.726C779.969 225.667 781.053 225 782.238 225H819.769C820.953 225 822.034 225.667 822.566 226.726L827.934 237.462H841.625C846.794 237.462 851 241.655 851 246.808V296.654C851 301.807 846.794 306 841.625 306ZM844.75 246.808C844.75 245.091 843.347 243.692 841.625 243.692H826C825.844 243.692 825.709 243.627 825.559 243.605C825.337 243.571 825.116 243.552 824.903 243.471C824.713 243.399 824.553 243.284 824.381 243.175C824.213 243.072 824.041 242.985 823.894 242.848C823.728 242.695 823.609 242.508 823.481 242.322C823.394 242.197 823.272 242.107 823.203 241.966L817.834 231.231H784.172L778.797 241.966C778.65 242.262 778.453 242.518 778.234 242.742C778.191 242.789 778.137 242.817 778.091 242.86C777.866 243.063 777.619 243.228 777.35 243.356C777.259 243.403 777.172 243.44 777.075 243.477C776.731 243.602 776.375 243.689 776.006 243.692H776H760.375C758.653 243.692 757.25 245.091 757.25 246.808V296.654C757.25 298.37 758.653 299.769 760.375 299.769H841.625C843.347 299.769 844.75 298.37 844.75 296.654V246.808ZM801 290.423C788.938 290.423 779.125 280.641 779.125 268.615C779.125 256.59 788.938 246.808 801 246.808C813.062 246.808 822.875 256.59 822.875 268.615C822.875 280.641 813.062 290.423 801 290.423ZM801 253.038C792.384 253.038 785.375 260.026 785.375 268.615C785.375 277.204 792.384 284.192 801 284.192C809.616 284.192 816.625 277.204 816.625 268.615C816.625 260.026 809.616 253.038 801 253.038Z" fill="#7E7E7E"/>
<path d="M656.924 356V330.8H667.76C670.496 330.8 672.644 331.352 674.204 332.456C675.764 333.56 676.544 335.168 676.544 337.28C676.544 339.344 675.8 340.928 674.312 342.032C672.824 343.112 670.868 343.652 668.444 343.652L669.092 342.572C671.9 342.572 674.048 343.136 675.536 344.264C677.048 345.368 677.804 346.988 677.804 349.124C677.804 351.284 677.012 352.976 675.428 354.2C673.868 355.4 671.54 356 668.444 356H656.924ZM660.488 353.156H668.372C670.292 353.156 671.732 352.808 672.692 352.112C673.676 351.392 674.168 350.3 674.168 348.836C674.168 347.372 673.676 346.304 672.692 345.632C671.732 344.96 670.292 344.624 668.372 344.624H660.488V353.156ZM660.488 341.888H667.508C669.26 341.888 670.592 341.54 671.504 340.844C672.44 340.148 672.908 339.128 672.908 337.784C672.908 336.416 672.44 335.384 671.504 334.688C670.592 333.992 669.26 333.644 667.508 333.644H660.488V341.888ZM702.107 356V336.92H705.563V356H702.107ZM691.847 343.4C694.271 343.424 696.107 343.976 697.355 345.056C698.627 346.136 699.263 347.66 699.263 349.628C699.263 351.692 698.567 353.288 697.175 354.416C695.807 355.52 693.839 356.06 691.271 356.036L683.243 356V336.92H686.699V343.364L691.847 343.4ZM691.019 353.408C692.555 353.432 693.731 353.12 694.547 352.472C695.363 351.824 695.771 350.864 695.771 349.592C695.771 348.344 695.363 347.432 694.547 346.856C693.755 346.28 692.579 345.98 691.019 345.956L686.699 345.884V353.372L691.019 353.408ZM721.102 356.288C719.518 356.288 718.114 356.036 716.89 355.532C715.69 355.028 714.658 354.284 713.794 353.3C712.93 352.292 712.27 351.032 711.814 349.52C711.382 347.984 711.166 346.184 711.166 344.12C711.166 342.488 711.31 341.024 711.598 339.728C711.886 338.432 712.294 337.28 712.822 336.272C713.374 335.264 714.046 334.388 714.838 333.644C715.654 332.9 716.566 332.288 717.574 331.808C718.606 331.304 719.734 330.92 720.958 330.656L729.67 328.712L730.174 331.916L722.146 333.644C721.666 333.74 721.09 333.884 720.418 334.076C719.746 334.268 719.062 334.568 718.366 334.976C717.67 335.36 717.022 335.9 716.422 336.596C715.822 337.292 715.342 338.204 714.982 339.332C714.622 340.436 714.442 341.804 714.442 343.436C714.442 343.892 714.454 344.24 714.478 344.48C714.502 344.72 714.526 344.96 714.55 345.2C714.598 345.44 714.634 345.8 714.658 346.28L713.218 344.804C713.602 343.484 714.214 342.332 715.054 341.348C715.894 340.364 716.902 339.608 718.078 339.08C719.278 338.528 720.586 338.252 722.002 338.252C723.778 338.252 725.35 338.636 726.718 339.404C728.11 340.172 729.202 341.228 729.994 342.572C730.786 343.916 731.182 345.452 731.182 347.18C731.182 348.932 730.762 350.504 729.922 351.896C729.106 353.264 727.942 354.344 726.43 355.136C724.918 355.904 723.142 356.288 721.102 356.288ZM721.426 353.408C722.65 353.408 723.73 353.144 724.666 352.616C725.602 352.064 726.334 351.332 726.862 350.42C727.39 349.484 727.654 348.44 727.654 347.288C727.654 346.136 727.39 345.116 726.862 344.228C726.334 343.34 725.602 342.644 724.666 342.14C723.73 341.612 722.626 341.348 721.354 341.348C720.154 341.348 719.074 341.6 718.114 342.104C717.154 342.584 716.41 343.268 715.882 344.156C715.354 345.02 715.09 346.028 715.09 347.18C715.09 348.332 715.354 349.388 715.882 350.348C716.434 351.284 717.178 352.028 718.114 352.58C719.074 353.132 720.178 353.408 721.426 353.408ZM736.118 356V336.92H739.574V350.816L751.274 336.92H754.406V356H750.95V342.104L739.286 356H736.118ZM771.23 356.216C769.646 356.216 768.194 355.856 766.874 355.136C765.578 354.392 764.534 353.3 763.742 351.86C762.974 350.42 762.59 348.62 762.59 346.46C762.59 344.3 762.962 342.5 763.706 341.06C764.474 339.62 765.506 338.54 766.802 337.82C768.122 337.1 769.598 336.74 771.23 336.74C773.102 336.74 774.758 337.148 776.198 337.964C777.638 338.78 778.778 339.92 779.618 341.384C780.458 342.824 780.878 344.516 780.878 346.46C780.878 348.404 780.458 350.108 779.618 351.572C778.778 353.036 777.638 354.176 776.198 354.992C774.758 355.808 773.102 356.216 771.23 356.216ZM761.114 362.984V336.92H764.426V342.068L764.21 346.496L764.57 350.924V362.984H761.114ZM770.942 353.192C772.166 353.192 773.258 352.916 774.218 352.364C775.202 351.812 775.97 351.032 776.522 350.024C777.098 348.992 777.386 347.804 777.386 346.46C777.386 345.092 777.098 343.916 776.522 342.932C775.97 341.924 775.202 341.144 774.218 340.592C773.258 340.04 772.166 339.764 770.942 339.764C769.742 339.764 768.65 340.04 767.666 340.592C766.706 341.144 765.938 341.924 765.362 342.932C764.81 343.916 764.534 345.092 764.534 346.46C764.534 347.804 764.81 348.992 765.362 350.024C765.938 351.032 766.706 351.812 767.666 352.364C768.65 352.916 769.742 353.192 770.942 353.192ZM785.899 356V336.92H789.355V350.816L801.055 336.92H804.187V356H800.731V342.104L789.067 356H785.899ZM814.675 356V339.044L815.539 339.944H807.691V336.92H825.115V339.944H817.303L818.131 339.044V356H814.675ZM836.301 356.216C834.261 356.216 832.461 355.796 830.901 354.956C829.365 354.116 828.165 352.964 827.301 351.5C826.461 350.036 826.041 348.356 826.041 346.46C826.041 344.564 826.449 342.884 827.265 341.42C828.105 339.956 829.245 338.816 830.685 338C832.149 337.16 833.793 336.74 835.617 336.74C837.465 336.74 839.097 337.148 840.513 337.964C841.929 338.78 843.033 339.932 843.825 341.42C844.641 342.884 845.049 344.6 845.049 346.568C845.049 346.712 845.037 346.88 845.013 347.072C845.013 347.264 845.001 347.444 844.977 347.612H828.741V345.128H843.177L841.773 345.992C841.797 344.768 841.545 343.676 841.017 342.716C840.489 341.756 839.757 341.012 838.821 340.484C837.909 339.932 836.841 339.656 835.617 339.656C834.417 339.656 833.349 339.932 832.413 340.484C831.477 341.012 830.745 341.768 830.217 342.752C829.689 343.712 829.425 344.816 829.425 346.064V346.64C829.425 347.912 829.713 349.052 830.289 350.06C830.889 351.044 831.717 351.812 832.773 352.364C833.829 352.916 835.041 353.192 836.409 353.192C837.537 353.192 838.557 353 839.469 352.616C840.405 352.232 841.221 351.656 841.917 350.888L843.825 353.12C842.961 354.128 841.881 354.896 840.585 355.424C839.313 355.952 837.885 356.216 836.301 356.216ZM871.454 356.288C871.43 356.288 871.346 356.288 871.202 356.288C871.082 356.288 870.962 356.288 870.842 356.288C870.722 356.288 870.65 356.288 870.626 356.288C866.714 356.24 863.678 355.376 861.518 353.696C859.358 351.992 858.278 349.568 858.278 346.424C858.278 343.304 859.358 340.916 861.518 339.26C863.702 337.58 866.774 336.728 870.734 336.704C870.782 336.704 870.854 336.704 870.95 336.704C871.07 336.704 871.178 336.704 871.274 336.704C871.394 336.704 871.466 336.704 871.49 336.704C875.498 336.704 878.606 337.544 880.814 339.224C883.046 340.904 884.162 343.304 884.162 346.424C884.162 349.592 883.046 352.028 880.814 353.732C878.582 355.436 875.462 356.288 871.454 356.288ZM871.382 353.264C873.47 353.264 875.198 353 876.566 352.472C877.958 351.944 879.002 351.176 879.698 350.168C880.394 349.16 880.742 347.912 880.742 346.424C880.742 344.96 880.394 343.736 879.698 342.752C879.002 341.768 877.958 341.024 876.566 340.52C875.198 340.016 873.47 339.764 871.382 339.764C871.334 339.764 871.238 339.764 871.094 339.764C870.95 339.764 870.866 339.764 870.842 339.764C868.802 339.764 867.098 340.028 865.73 340.556C864.386 341.06 863.378 341.804 862.706 342.788C862.034 343.772 861.698 344.984 861.698 346.424C861.698 347.888 862.034 349.124 862.706 350.132C863.402 351.14 864.422 351.908 865.766 352.436C867.134 352.964 868.826 353.24 870.842 353.264C870.89 353.264 870.974 353.264 871.094 353.264C871.238 353.264 871.334 353.264 871.382 353.264ZM869.51 362.984V329.288H872.894V362.984H869.51ZM897.219 356.216C895.299 356.216 893.595 355.796 892.107 354.956C890.619 354.116 889.443 352.964 888.579 351.5C887.715 350.012 887.283 348.332 887.283 346.46C887.283 344.564 887.715 342.884 888.579 341.42C889.443 339.956 890.619 338.816 892.107 338C893.595 337.16 895.299 336.74 897.219 336.74C899.115 336.74 900.807 337.16 902.295 338C903.807 338.816 904.983 339.956 905.823 341.42C906.687 342.86 907.119 344.54 907.119 346.46C907.119 348.356 906.687 350.036 905.823 351.5C904.983 352.964 903.807 354.116 902.295 354.956C900.807 355.796 899.115 356.216 897.219 356.216ZM897.219 353.192C898.443 353.192 899.535 352.916 900.495 352.364C901.479 351.812 902.247 351.032 902.799 350.024C903.351 348.992 903.627 347.804 903.627 346.46C903.627 345.092 903.351 343.916 902.799 342.932C902.247 341.924 901.479 341.144 900.495 340.592C899.535 340.04 898.443 339.764 897.219 339.764C895.995 339.764 894.903 340.04 893.943 340.592C892.983 341.144 892.215 341.924 891.639 342.932C891.063 343.916 890.775 345.092 890.775 346.46C890.775 347.804 891.063 348.992 891.639 350.024C892.215 351.032 892.983 351.812 893.943 352.364C894.903 352.916 895.995 353.192 897.219 353.192ZM915.187 356V339.044L916.051 339.944H908.203V336.92H925.627V339.944H917.815L918.643 339.044V356H915.187ZM936.489 356.216C934.569 356.216 932.865 355.796 931.377 354.956C929.889 354.116 928.713 352.964 927.849 351.5C926.985 350.012 926.553 348.332 926.553 346.46C926.553 344.564 926.985 342.884 927.849 341.42C928.713 339.956 929.889 338.816 931.377 338C932.865 337.16 934.569 336.74 936.489 336.74C938.385 336.74 940.077 337.16 941.565 338C943.077 338.816 944.253 339.956 945.093 341.42C945.957 342.86 946.389 344.54 946.389 346.46C946.389 348.356 945.957 350.036 945.093 351.5C944.253 352.964 943.077 354.116 941.565 354.956C940.077 355.796 938.385 356.216 936.489 356.216ZM936.489 353.192C937.713 353.192 938.805 352.916 939.765 352.364C940.749 351.812 941.517 351.032 942.069 350.024C942.621 348.992 942.897 347.804 942.897 346.46C942.897 345.092 942.621 343.916 942.069 342.932C941.517 341.924 940.749 341.144 939.765 340.592C938.805 340.04 937.713 339.764 936.489 339.764C935.265 339.764 934.173 340.04 933.213 340.592C932.253 341.144 931.485 341.924 930.909 342.932C930.333 343.916 930.045 345.092 930.045 346.46C930.045 347.804 930.333 348.992 930.909 350.024C931.485 351.032 932.253 351.812 933.213 352.364C934.173 352.916 935.265 353.192 936.489 353.192Z" fill="#7E7E7E"/>
</svg>
