<svg width="50" height="50" viewBox="0 0 50 50" fill="none" xmlns="http://www.w3.org/2000/svg">
<path d="M25 25C28.4518 25 31.25 22.2018 31.25 18.75C31.25 15.2982 28.4518 12.5 25 12.5C21.5482 12.5 18.75 15.2982 18.75 18.75C18.75 22.2018 21.5482 25 25 25Z" stroke="black" stroke-width="3.75"/>
<path d="M37.4356 41.6667C37.1042 35.6427 35.2598 31.25 24.9998 31.25C14.74 31.25 12.8956 35.6427 12.5641 41.6667" stroke="black" stroke-width="3.75" stroke-linecap="round"/>
<path d="M14.5833 6.95387C17.6476 5.18127 21.2054 4.16675 25 4.16675C36.5058 4.16675 45.8333 13.4941 45.8333 25.0001C45.8333 36.5059 36.5058 45.8334 25 45.8334C13.4941 45.8334 4.16666 36.5059 4.16666 25.0001C4.16666 21.2055 5.18118 17.6477 6.95378 14.5834" stroke="black" stroke-width="3.75" stroke-linecap="round"/>
</svg>
