<svg width="45" height="45" viewBox="0 0 45 45" fill="none" xmlns="http://www.w3.org/2000/svg">
<path d="M24.4967 0C13.1912 0 3.99331 9.19775 3.99331 20.5033C3.99331 25.3937 5.71526 29.8891 8.58366 33.4169L0 42.0005L2.99953 45L11.5832 36.4163C15.1109 39.2846 19.6062 41.0067 24.4966 41.0067C35.8022 41.0067 45 31.8088 45 20.5033C45 9.19775 35.8022 0 24.4967 0ZM24.4967 36.7646C15.5303 36.7646 8.23544 29.4697 8.23544 20.5033C8.23544 11.5369 15.5302 4.24204 24.4967 4.24204C33.4632 4.24204 40.758 11.5369 40.758 20.5033C40.758 29.4697 33.4631 36.7646 24.4967 36.7646Z" fill="black"/>
</svg>
